<svg width="242" height="242" viewBox="0 0 242 242" fill="none" xmlns="http://www.w3.org/2000/svg">
<path d="M242 121C242 187.826 187.826 242 121 242C54.1735 242 -9.77493e-07 187.826 0 121C9.77499e-07 54.1735 54.1735 -9.77496e-07 121 0C187.826 9.77496e-07 242 54.1735 242 121Z" fill="#DD7B55"/>
<path d="M208.618 125.579C206.085 173.912 164.85 211.04 116.517 208.507C68.1839 205.974 31.0557 164.739 33.5887 116.406C36.1218 68.0731 77.3567 30.945 125.69 33.478C174.023 36.011 211.151 77.246 208.618 125.579Z" fill="#9CB38B"/>
<path d="M145.118 148.462C129.912 161.68 106.871 160.07 93.6538 144.866C80.4367 129.661 82.049 106.62 97.255 93.4016C112.461 80.1833 135.502 81.7934 148.719 96.9979C161.936 112.202 160.324 135.244 145.118 148.462Z" fill="#EBCD83"/>
<path fill-rule="evenodd" clip-rule="evenodd" d="M168.733 72.7199C168.825 76.2623 168.646 79.7322 168.219 83.0978C167.866 83.1016 167.512 83.1082 167.158 83.1175C157.157 83.3794 147.846 85.7742 139.911 89.7316C138.74 79.9591 134.578 69.8604 127.633 60.8976C137.334 50.9831 149.151 44.8413 160.705 42.8132C165.502 51.2945 168.441 61.5784 168.733 72.7199ZM93.8311 37.7258C78.0745 33.3551 62.2072 36.2743 52.0229 47.0058C43.5493 55.9348 40.6826 68.5093 42.9478 81.4128C28.7163 89.4636 19.5612 102.747 19.9485 117.537C20.2707 129.842 27.1349 140.76 37.86 148.282C33.4886 164.039 36.4077 179.906 47.14 190.09C56.0693 198.563 68.6443 201.43 81.5483 199.165C89.599 213.398 102.884 222.555 117.674 222.168C129.98 221.845 140.9 214.98 148.422 204.253C164.179 208.623 180.046 205.704 190.231 194.973C198.704 186.044 201.571 173.469 199.306 160.565C213.537 152.515 222.692 139.231 222.305 124.441C221.983 112.136 215.119 101.218 204.393 93.6954C208.765 77.9391 205.845 62.0719 195.113 51.8879C186.184 43.4146 173.609 40.5482 160.705 42.8132C152.654 28.58 139.37 19.4236 124.579 19.8109C112.273 20.1332 101.354 26.9987 93.8311 37.7258ZM83.2356 73.8965C79.8699 73.4695 76.4 73.2904 72.8575 73.3832C61.7147 73.675 51.4296 76.6145 42.9478 81.4128C44.9759 92.966 51.1179 104.783 61.0327 114.483C58.3509 116.561 55.7708 118.888 53.3315 121.458C45.659 129.543 40.465 138.893 37.86 148.282C47.4638 155.019 60.1635 159.032 74.0341 158.88C73.607 162.246 73.4279 165.716 73.5207 169.259C73.8124 180.4 76.7512 190.684 81.5483 199.165C93.1021 197.137 104.92 190.995 114.62 181.08C116.698 183.762 119.025 186.342 121.595 188.782C129.681 196.454 139.032 201.648 148.422 204.253C155.157 194.649 159.17 181.951 159.018 168.082C162.384 168.509 165.853 168.688 169.396 168.595C180.539 168.303 190.824 165.364 199.306 160.565C197.277 149.012 191.135 137.195 181.22 127.495C183.902 125.417 186.482 123.091 188.922 120.52C196.594 112.435 201.788 103.085 204.393 93.6954C194.789 86.9594 182.09 82.9461 168.219 83.0978C166.792 94.3464 162.594 104.431 156.511 112.169C150.246 110.073 143.908 109.13 137.863 109.373C140.076 103.327 140.735 96.6103 139.911 89.7316C133.999 92.6798 128.85 96.4953 124.746 100.942C122.037 95.1017 117.753 89.8864 112.306 85.6048C115.119 77.1956 120.009 68.9193 126.896 61.6625C127.14 61.4051 127.386 61.1501 127.633 60.8976C125.555 58.216 123.228 55.636 120.658 53.1969C112.573 45.5244 103.221 40.3305 93.8311 37.7258C87.0964 47.3292 83.0839 60.0275 83.2356 73.8965ZM109.51 104.254C109.267 98.2083 110.211 91.8697 112.306 85.6048C104.568 79.5219 94.4841 75.3239 83.2356 73.8965C83.2395 74.2497 83.246 74.6036 83.2553 74.9582C83.5172 84.9595 85.9121 94.2699 89.8696 102.206C80.0962 103.376 69.9964 107.538 61.0327 114.483C61.2853 114.73 61.5403 114.976 61.7978 115.22C69.0552 122.107 77.3324 126.997 85.7424 129.81C79.6594 137.548 75.4614 147.632 74.0341 158.88C74.3872 158.876 74.7411 158.87 75.0958 158.861C85.0969 158.599 94.407 156.204 102.343 152.247C103.513 162.019 107.675 172.118 114.62 181.08C114.867 180.828 115.113 180.573 115.357 180.316C122.244 173.059 127.134 164.782 129.947 156.373C137.685 162.456 147.769 166.654 159.018 168.082C159.014 167.729 159.007 167.375 158.998 167.02C158.736 157.019 156.341 147.708 152.384 139.773C162.157 138.602 172.257 134.44 181.22 127.495C180.968 127.248 180.713 127.003 180.456 126.758C173.198 119.872 164.921 114.982 156.511 112.169C152.229 117.615 147.014 121.899 141.174 124.609C138.594 122.228 135.802 120.2 132.844 118.578C134.987 115.765 136.656 112.669 137.863 109.373C134.355 109.514 130.945 110.054 127.706 110.999C127.232 107.494 126.223 104.125 124.746 100.942C122.366 103.522 120.337 106.314 118.716 109.272C115.902 107.13 112.806 105.461 109.51 104.254ZM111.136 114.41C110.191 111.171 109.651 107.762 109.51 104.254C103.465 102.04 96.748 101.382 89.8696 102.206C92.8178 108.117 96.6332 113.266 101.08 117.37C95.2394 120.079 90.024 124.363 85.7424 129.81C92.007 131.905 98.3454 132.848 104.391 132.605C102.177 138.651 101.519 145.368 102.343 152.247C108.255 149.298 113.404 145.483 117.507 141.036C120.217 146.876 124.501 152.092 129.947 156.373C132.043 150.108 132.986 143.77 132.743 137.724C138.789 139.938 145.505 140.596 152.384 139.773C149.435 133.861 145.62 128.712 141.174 124.609C137.99 126.085 134.622 127.094 131.117 127.569C130.616 125.853 130.002 124.186 129.273 122.577C129.667 122.199 130.054 121.81 130.433 121.411C131.294 120.503 132.098 119.558 132.844 118.578C131.276 117.719 129.662 116.975 128.009 116.352C128.02 115.806 128.019 115.258 128.005 114.707C127.972 113.456 127.872 112.219 127.706 110.999C125.991 111.5 124.323 112.114 122.714 112.843C122.336 112.449 121.948 112.062 121.548 111.683C120.641 110.822 119.695 110.018 118.716 109.272C117.857 110.84 117.112 112.454 116.489 114.107C115.943 114.096 115.395 114.097 114.845 114.111C113.593 114.144 112.357 114.244 111.136 114.41ZM112.981 119.402C112.251 117.793 111.637 116.125 111.136 114.41C107.632 114.884 104.263 115.893 101.08 117.37C103.659 119.75 106.451 121.779 109.41 123.4C107.267 126.214 105.598 129.31 104.391 132.605C107.899 132.465 111.308 131.925 114.547 130.979C115.022 134.484 116.031 137.853 117.507 141.036C119.888 138.456 121.916 135.664 123.538 132.706C126.352 134.849 129.448 136.517 132.743 137.724C132.602 134.217 132.063 130.808 131.117 127.569C129.897 127.734 128.66 127.834 127.409 127.867C126.858 127.882 126.31 127.883 125.764 127.871C126.151 126.843 126.49 125.8 126.78 124.743C127.641 124.065 128.472 123.343 129.273 122.577C128.819 121.576 128.321 120.597 127.779 119.644C127.907 118.557 127.985 117.459 128.009 116.352C126.981 115.965 125.938 115.626 124.881 115.336C124.203 114.475 123.481 113.644 122.714 112.843C121.713 113.297 120.735 113.795 119.782 114.337C118.695 114.209 117.597 114.131 116.489 114.107C116.103 115.135 115.763 116.178 115.473 117.235C114.613 117.913 113.781 118.635 112.981 119.402ZM114.475 122.335C113.932 121.381 113.434 120.403 112.981 119.402C112.586 119.78 112.2 120.168 111.821 120.567C110.959 121.475 110.156 122.42 109.41 123.4C110.977 124.259 112.591 125.004 114.245 125.626C114.233 126.172 114.234 126.721 114.249 127.271C114.281 128.522 114.382 129.759 114.547 130.979C116.262 130.479 117.93 129.864 119.539 129.135C119.917 129.529 120.305 129.916 120.705 130.295C121.613 131.156 122.558 131.96 123.538 132.706C124.397 131.139 125.142 129.525 125.764 127.871C124.657 127.847 123.559 127.77 122.472 127.641C123.974 126.786 125.413 125.82 126.78 124.743C127.238 123.076 127.574 121.374 127.779 119.644C126.924 118.142 125.958 116.703 124.881 115.336C123.213 114.878 121.511 114.542 119.782 114.337C118.28 115.192 116.84 116.158 115.473 117.235C115.015 118.903 114.68 120.605 114.475 122.335ZM117.373 126.643C119.04 127.101 120.742 127.436 122.472 127.641C121.519 128.184 120.54 128.681 119.539 129.135C118.773 128.335 118.051 127.503 117.373 126.643ZM117.373 126.643C116.295 125.276 115.33 123.836 114.475 122.335C114.346 123.421 114.269 124.519 114.245 125.626C115.273 126.013 116.316 126.353 117.373 126.643ZM121.293 126.078C124.086 126.005 126.291 123.682 126.218 120.889C126.145 118.096 123.821 115.891 121.028 115.964C118.235 116.037 116.03 118.361 116.103 121.154C116.176 123.947 118.5 126.151 121.293 126.078Z" fill="#3B548C"/>
<path d="M126.217 120.893C126.29 123.686 124.085 126.01 121.292 126.083C118.499 126.156 116.176 123.951 116.103 121.158C116.029 118.365 118.234 116.042 121.027 115.969C123.82 115.896 126.144 118.1 126.217 120.893Z" fill="#79578D"/>
<path fill-rule="evenodd" clip-rule="evenodd" d="M126.78 124.748C127.64 124.07 128.472 123.348 129.272 122.581C128.819 121.58 128.321 120.602 127.778 119.648C127.907 118.562 127.984 117.464 128.008 116.357C126.98 115.97 125.937 115.63 124.88 115.34C124.202 114.48 123.48 113.648 122.714 112.848C121.713 113.301 120.734 113.799 119.781 114.342C118.694 114.213 117.596 114.136 116.489 114.112C116.102 115.14 115.763 116.183 115.472 117.24C114.612 117.918 113.78 118.64 112.98 119.406C113.434 120.407 113.932 121.386 114.474 122.339C114.345 123.426 114.268 124.524 114.244 125.631C115.272 126.018 116.315 126.357 117.372 126.647C118.05 127.507 118.772 128.339 119.539 129.139C120.54 128.686 121.518 128.188 122.471 127.645C123.558 127.774 124.656 127.852 125.763 127.875C126.15 126.848 126.49 125.805 126.78 124.748ZM126.78 124.748C127.238 123.08 127.573 121.378 127.778 119.648C126.923 118.147 125.957 116.707 124.88 115.34C123.213 114.882 121.511 114.547 119.781 114.342C118.279 115.197 116.839 116.162 115.472 117.24C115.014 118.907 114.679 120.609 114.474 122.339C115.329 123.841 116.295 125.28 117.372 126.647C119.04 127.105 120.741 127.44 122.471 127.645C123.973 126.791 125.413 125.825 126.78 124.748Z" fill="#79578D"/>
<path fill-rule="evenodd" clip-rule="evenodd" d="M132.843 118.583C134.986 115.769 136.655 112.673 137.862 109.377C134.354 109.518 130.945 110.058 127.706 111.004C127.231 107.499 126.222 104.13 124.746 100.946C122.365 103.526 120.336 106.318 118.715 109.277C115.901 107.134 112.805 105.465 109.509 104.258C109.65 107.766 110.19 111.175 111.135 114.414C107.631 114.889 104.262 115.897 101.079 117.374C103.659 119.754 106.451 121.783 109.409 123.405C107.266 126.218 105.597 129.314 104.39 132.61C107.898 132.469 111.307 131.929 114.546 130.984C115.021 134.488 116.03 137.857 117.507 141.04C119.887 138.461 121.916 135.669 123.537 132.71C126.351 134.853 129.447 136.522 132.743 137.729C132.602 134.221 132.062 130.812 131.117 127.573C134.621 127.099 137.99 126.09 141.173 124.613C138.593 122.233 135.802 120.204 132.843 118.583ZM129.272 122.581C129.666 122.203 130.053 121.815 130.432 121.415C131.294 120.508 132.097 119.562 132.843 118.583C131.276 117.724 129.662 116.979 128.008 116.357C128.02 115.81 128.019 115.262 128.004 114.712C127.971 113.461 127.871 112.224 127.706 111.004C125.99 111.504 124.323 112.119 122.714 112.848C122.336 112.454 121.947 112.067 121.548 111.688C120.64 110.826 119.695 110.023 118.715 109.277C117.856 110.844 117.111 112.458 116.489 114.112C115.943 114.1 115.394 114.101 114.844 114.116C113.593 114.148 112.356 114.249 111.135 114.414C111.636 116.129 112.251 117.797 112.98 119.406C112.586 119.784 112.199 120.172 111.82 120.572C110.959 121.479 110.155 122.425 109.409 123.405C110.976 124.264 112.59 125.008 114.244 125.631C114.233 126.177 114.234 126.725 114.248 127.275C114.281 128.527 114.381 129.763 114.546 130.984C116.262 130.483 117.929 129.869 119.539 129.139C119.916 129.534 120.305 129.92 120.704 130.299C121.612 131.161 122.557 131.964 123.537 132.71C124.396 131.143 125.141 129.529 125.763 127.875C126.309 127.887 126.858 127.886 127.408 127.872C128.659 127.839 129.896 127.738 131.117 127.573C130.616 125.858 130.001 124.19 129.272 122.581Z" fill="#79578D"/>
<path fill-rule="evenodd" clip-rule="evenodd" d="M127.657 60.8773C127.641 60.8756 127.625 60.8739 127.609 60.8721C127.617 60.8821 127.625 60.8921 127.633 60.902C127.385 61.1546 127.14 61.4095 126.896 61.6669C120.009 68.9237 115.119 77.2 112.306 85.6092C104.568 79.5263 94.4835 75.3283 83.235 73.901C83.2348 73.8788 83.2345 73.8566 83.2343 73.8345C83.2105 73.8536 83.1867 73.8727 83.163 73.8919C83.187 73.8949 83.211 73.8979 83.235 73.901C83.2389 74.2541 83.2454 74.608 83.2547 74.9627C83.5166 84.964 85.9115 94.2743 89.869 102.21C80.0956 103.38 69.9958 107.542 61.0321 114.487C61.0169 114.472 61.0018 114.458 60.9866 114.443C60.9835 114.472 60.9804 114.501 60.9772 114.53C60.9955 114.516 61.0138 114.501 61.0321 114.487C61.2847 114.734 61.5397 114.98 61.7972 115.224C69.0546 122.111 77.3318 127.001 85.7418 129.814C79.6588 137.552 75.4608 147.636 74.0334 158.885C74.0229 158.885 74.0123 158.885 74.0017 158.885C74.0108 158.896 74.02 158.908 74.0291 158.919C74.0305 158.908 74.032 158.896 74.0334 158.885C74.3866 158.881 74.7405 158.874 75.0952 158.865C85.0963 158.603 94.4064 156.208 102.342 152.251C103.512 162.019 107.671 172.114 114.611 181.074C114.617 181.074 114.623 181.075 114.629 181.076C114.873 180.826 115.115 180.574 115.356 180.32C122.243 173.063 127.133 164.787 129.946 156.377C137.673 162.451 147.739 166.646 158.967 168.08C158.984 168.066 159 168.053 159.017 168.04C159.013 167.702 159.006 167.364 158.997 167.025C158.736 157.023 156.341 147.713 152.383 139.777C162.141 138.609 172.225 134.457 181.178 127.532C181.181 127.51 181.183 127.488 181.186 127.466C180.944 127.23 180.701 126.996 180.455 126.763C173.198 119.876 164.92 114.986 156.51 112.173C162.591 104.439 166.788 94.3598 168.217 83.1171C168.213 83.1122 168.209 83.1073 168.205 83.1024C167.856 83.1062 167.507 83.1128 167.157 83.1219C157.156 83.3838 147.846 85.7787 139.91 89.736C138.74 79.9635 134.577 69.8648 127.633 60.902C127.641 60.8938 127.649 60.8855 127.657 60.8773ZM137.862 109.377C140.076 103.332 140.734 96.6147 139.91 89.736C133.998 92.6842 128.849 96.4997 124.746 100.946C122.036 95.1062 117.752 89.8908 112.306 85.6092C110.21 91.8741 109.267 98.2127 109.509 104.258C103.464 102.045 96.7473 101.386 89.869 102.21C92.8172 108.122 96.6326 113.271 101.079 117.374C95.2388 120.083 90.0234 124.368 85.7418 129.814C92.0064 131.909 98.3448 132.852 104.39 132.61C102.177 138.655 101.518 145.372 102.342 152.251C108.254 149.303 113.403 145.487 117.507 141.04C120.216 146.881 124.5 152.096 129.946 156.377C132.042 150.113 132.985 143.774 132.743 137.729C138.788 139.942 145.505 140.601 152.383 139.777C149.435 133.865 145.62 128.717 141.173 124.613C147.013 121.904 152.229 117.62 156.51 112.173C150.246 110.078 143.907 109.135 137.862 109.377Z" fill="#79578D"/>
<path d="M127.546 122.327C126.646 126.953 125.209 128.067 120.415 127.135C115.621 126.202 114.736 124.481 115.607 120.004C116.624 114.781 118.261 114.326 122.738 115.197C127.634 116.149 128.562 117.104 127.546 122.327Z" fill="#EBCD83"/>
<path d="M129.284 122.465C128.706 125.434 127.784 126.149 124.708 125.55C121.631 124.952 121.063 123.848 121.622 120.974C122.274 117.623 123.325 117.33 126.198 117.889C129.34 118.5 129.936 119.113 129.284 122.465Z" fill="#EBCD83"/>
<path d="M125.119 125.526C124.438 129.027 123.351 129.87 119.723 129.164C116.094 128.458 115.425 127.156 116.084 123.768C116.853 119.815 118.092 119.47 121.48 120.129C125.186 120.85 125.888 121.573 125.119 125.526Z" fill="#EBCD83"/>
<path d="M123.129 122.852C122.395 126.625 121.224 127.534 117.314 126.773C113.404 126.013 112.683 124.609 113.393 120.958C114.222 116.699 115.557 116.327 119.208 117.037C123.201 117.814 123.958 118.593 123.129 122.852Z" fill="#EBCD83"/>
<path d="M123.615 121.307C122.817 125.411 121.542 126.4 117.289 125.572C113.036 124.745 112.251 123.218 113.024 119.246C113.925 114.613 115.378 114.208 119.35 114.981C123.693 115.826 124.517 116.674 123.615 121.307Z" fill="#EBCD83"/>
<path d="M126.168 120.288C125.319 124.649 123.965 125.699 119.446 124.82C114.927 123.941 114.093 122.319 114.914 118.099C115.872 113.175 117.416 112.746 121.636 113.567C126.251 114.465 127.126 115.365 126.168 120.288Z" fill="#EBCD83"/>
<path d="M125.037 117.353C124.445 120.394 123.501 121.126 120.349 120.513C117.198 119.9 116.616 118.769 117.189 115.826C117.857 112.393 118.933 112.093 121.876 112.666C125.094 113.292 125.705 113.92 125.037 117.353Z" fill="#EBCD83"/>
<path d="M128.027 117.814C127.962 121.525 127.001 122.586 123.155 122.519C119.309 122.452 118.388 121.238 118.45 117.647C118.523 113.457 119.731 112.88 123.322 112.942C127.25 113.011 128.1 113.624 128.027 117.814Z" fill="#EBCD83"/>
<path d="M127.142 124.04C127.081 127.522 126.179 128.517 122.571 128.454C118.963 128.391 118.098 127.253 118.157 123.883C118.225 119.953 119.358 119.411 122.728 119.469C126.413 119.534 127.21 120.109 127.142 124.04Z" fill="#EBCD83"/>
</svg>
