<svg width="4023" height="336" viewBox="0 0 4023 336" fill="none" xmlns="http://www.w3.org/2000/svg">
<circle cx="1713.5" cy="167.5" r="140.5" stroke="#292D36" stroke-width="54"/>
<path d="M1835 168C1835 234.826 1780.83 289 1714 289C1647.17 289 1593 234.826 1593 168C1593 101.174 1647.17 47 1714 47C1780.83 47 1835 101.174 1835 168Z" fill="#9CB38B"/>
<path d="M1801.62 172.579C1799.08 220.912 1757.85 258.04 1709.52 255.507C1661.18 252.974 1624.06 211.739 1626.59 163.406C1629.12 115.073 1670.36 77.945 1718.69 80.478C1767.02 83.011 1804.15 124.246 1801.62 172.579Z" fill="#DD7B55"/>
<path d="M1738.12 195.462C1722.91 208.68 1699.87 207.07 1686.65 191.866C1673.44 176.661 1675.05 153.62 1690.25 140.402C1705.46 127.183 1728.5 128.793 1741.72 143.998C1754.94 159.202 1753.32 182.244 1738.12 195.462Z" fill="#79578D"/>
<path fill-rule="evenodd" clip-rule="evenodd" d="M1761.73 119.72C1761.83 123.262 1761.65 126.732 1761.22 130.098C1760.87 130.102 1760.51 130.108 1760.16 130.117C1750.16 130.379 1740.85 132.774 1732.91 136.732C1731.74 126.959 1727.58 116.86 1720.63 107.898C1730.33 97.9831 1742.15 91.8413 1753.7 89.8132C1758.5 98.2945 1761.44 108.578 1761.73 119.72ZM1686.83 84.7258C1671.07 80.3551 1655.21 83.2743 1645.02 94.0058C1636.55 102.935 1633.68 115.509 1635.95 128.413C1621.72 136.464 1612.56 149.747 1612.95 164.537C1613.27 176.842 1620.13 187.76 1630.86 195.282C1626.49 211.039 1629.41 226.906 1640.14 237.09C1649.07 245.563 1661.64 248.43 1674.55 246.165C1682.6 260.398 1695.88 269.555 1710.67 269.168C1722.98 268.845 1733.9 261.98 1741.42 251.253C1757.18 255.623 1773.05 252.704 1783.23 241.973C1791.7 233.044 1794.57 220.469 1792.31 207.565C1806.54 199.515 1815.69 186.231 1815.31 171.441C1814.98 159.136 1808.12 148.218 1797.39 140.695C1801.76 124.939 1798.85 109.072 1788.11 98.8879C1779.18 90.4146 1766.61 87.5482 1753.7 89.8132C1745.65 75.58 1732.37 66.4236 1717.58 66.8109C1705.27 67.1332 1694.35 73.9987 1686.83 84.7258ZM1676.24 120.897C1672.87 120.469 1669.4 120.29 1665.86 120.383C1654.71 120.675 1644.43 123.615 1635.95 128.413C1637.98 139.966 1644.12 151.783 1654.03 161.483C1651.35 163.561 1648.77 165.888 1646.33 168.458C1638.66 176.543 1633.47 185.893 1630.86 195.282C1640.46 202.019 1653.16 206.032 1667.03 205.88C1666.61 209.246 1666.43 212.716 1666.52 216.259C1666.81 227.4 1669.75 237.684 1674.55 246.165C1686.1 244.137 1697.92 237.995 1707.62 228.08C1709.7 230.762 1712.02 233.342 1714.6 235.782C1722.68 243.454 1732.03 248.648 1741.42 251.253C1748.16 241.649 1752.17 228.951 1752.02 215.082C1755.38 215.509 1758.85 215.688 1762.4 215.595C1773.54 215.303 1783.82 212.364 1792.31 207.565C1790.28 196.012 1784.14 184.195 1774.22 174.495C1776.9 172.417 1779.48 170.091 1781.92 167.52C1789.59 159.435 1794.79 150.085 1797.39 140.695C1787.79 133.959 1775.09 129.946 1761.22 130.098C1759.79 141.346 1755.59 151.431 1749.51 159.169C1743.25 157.073 1736.91 156.13 1730.86 156.373C1733.08 150.327 1733.73 143.61 1732.91 136.732C1727 139.68 1721.85 143.495 1717.75 147.942C1715.04 142.102 1710.75 136.886 1705.31 132.605C1708.12 124.196 1713.01 115.919 1719.9 108.663C1720.14 108.405 1720.39 108.15 1720.63 107.898C1718.56 105.216 1716.23 102.636 1713.66 100.197C1705.57 92.5244 1696.22 87.3305 1686.83 84.7258C1680.1 94.3292 1676.08 107.028 1676.24 120.897ZM1702.51 151.254C1702.27 145.208 1703.21 138.87 1705.31 132.605C1697.57 126.522 1687.48 122.324 1676.24 120.897C1676.24 121.25 1676.25 121.604 1676.26 121.958C1676.52 131.96 1678.91 141.27 1682.87 149.206C1673.1 150.376 1663 154.538 1654.03 161.483C1654.29 161.73 1654.54 161.976 1654.8 162.22C1662.06 169.107 1670.33 173.997 1678.74 176.81C1672.66 184.548 1668.46 194.632 1667.03 205.88C1667.39 205.876 1667.74 205.87 1668.1 205.861C1678.1 205.599 1687.41 203.204 1695.34 199.247C1696.51 209.019 1700.68 219.118 1707.62 228.08C1707.87 227.828 1708.11 227.573 1708.36 227.316C1715.24 220.059 1720.13 211.782 1722.95 203.373C1730.68 209.456 1740.77 213.654 1752.02 215.082C1752.01 214.729 1752.01 214.375 1752 214.02C1751.74 204.019 1749.34 194.708 1745.38 186.773C1755.16 185.602 1765.26 181.44 1774.22 174.495C1773.97 174.248 1773.71 174.003 1773.46 173.758C1766.2 166.872 1757.92 161.982 1749.51 159.169C1745.23 164.615 1740.01 168.899 1734.17 171.609C1731.59 169.228 1728.8 167.2 1725.84 165.578C1727.99 162.765 1729.66 159.669 1730.86 156.373C1727.35 156.514 1723.95 157.054 1720.71 157.999C1720.23 154.494 1719.22 151.125 1717.75 147.942C1715.37 150.522 1713.34 153.314 1711.72 156.272C1708.9 154.13 1705.81 152.461 1702.51 151.254ZM1704.14 161.41C1703.19 158.171 1702.65 154.762 1702.51 151.254C1696.46 149.04 1689.75 148.382 1682.87 149.206C1685.82 155.117 1689.63 160.266 1694.08 164.37C1688.24 167.079 1683.02 171.363 1678.74 176.81C1685.01 178.905 1691.35 179.848 1697.39 179.605C1695.18 185.651 1694.52 192.368 1695.34 199.247C1701.25 196.298 1706.4 192.483 1710.51 188.036C1713.22 193.876 1717.5 199.092 1722.95 203.373C1725.04 197.108 1725.99 190.77 1725.74 184.724C1731.79 186.938 1738.51 187.596 1745.38 186.773C1742.44 180.861 1738.62 175.712 1734.17 171.609C1730.99 173.085 1727.62 174.094 1724.12 174.569C1723.62 172.853 1723 171.186 1722.27 169.577C1722.67 169.199 1723.05 168.81 1723.43 168.411C1724.29 167.503 1725.1 166.558 1725.84 165.578C1724.28 164.719 1722.66 163.975 1721.01 163.352C1721.02 162.806 1721.02 162.258 1721 161.707C1720.97 160.456 1720.87 159.219 1720.71 157.999C1718.99 158.5 1717.32 159.114 1715.71 159.843C1715.34 159.449 1714.95 159.062 1714.55 158.683C1713.64 157.822 1712.7 157.018 1711.72 156.272C1710.86 157.84 1710.11 159.454 1709.49 161.107C1708.94 161.096 1708.4 161.097 1707.84 161.111C1706.59 161.144 1705.36 161.244 1704.14 161.41ZM1705.98 166.402C1705.25 164.793 1704.64 163.125 1704.14 161.41C1700.63 161.884 1697.26 162.893 1694.08 164.37C1696.66 166.75 1699.45 168.779 1702.41 170.4C1700.27 173.214 1698.6 176.31 1697.39 179.605C1700.9 179.465 1704.31 178.925 1707.55 177.979C1708.02 181.484 1709.03 184.853 1710.51 188.036C1712.89 185.456 1714.92 182.664 1716.54 179.706C1719.35 181.849 1722.45 183.517 1725.74 184.724C1725.6 181.217 1725.06 177.808 1724.12 174.569C1722.9 174.734 1721.66 174.834 1720.41 174.867C1719.86 174.882 1719.31 174.883 1718.76 174.871C1719.15 173.843 1719.49 172.8 1719.78 171.743C1720.64 171.065 1721.47 170.343 1722.27 169.577C1721.82 168.576 1721.32 167.597 1720.78 166.644C1720.91 165.557 1720.98 164.459 1721.01 163.352C1719.98 162.965 1718.94 162.626 1717.88 162.336C1717.2 161.475 1716.48 160.644 1715.71 159.843C1714.71 160.297 1713.73 160.795 1712.78 161.337C1711.69 161.209 1710.6 161.131 1709.49 161.107C1709.1 162.135 1708.76 163.178 1708.47 164.235C1707.61 164.913 1706.78 165.635 1705.98 166.402ZM1707.47 169.335C1706.93 168.381 1706.43 167.403 1705.98 166.402C1705.59 166.78 1705.2 167.168 1704.82 167.567C1703.96 168.475 1703.16 169.42 1702.41 170.4C1703.98 171.259 1705.59 172.004 1707.24 172.626C1707.23 173.172 1707.23 173.721 1707.25 174.271C1707.28 175.522 1707.38 176.759 1707.55 177.979C1709.26 177.479 1710.93 176.864 1712.54 176.135C1712.92 176.529 1713.31 176.916 1713.7 177.295C1714.61 178.156 1715.56 178.96 1716.54 179.706C1717.4 178.139 1718.14 176.525 1718.76 174.871C1717.66 174.847 1716.56 174.77 1715.47 174.641C1716.97 173.786 1718.41 172.82 1719.78 171.743C1720.24 170.076 1720.57 168.374 1720.78 166.644C1719.92 165.142 1718.96 163.703 1717.88 162.336C1716.21 161.878 1714.51 161.542 1712.78 161.337C1711.28 162.192 1709.84 163.158 1708.47 164.235C1708.02 165.903 1707.68 167.605 1707.47 169.335ZM1710.37 173.643C1712.04 174.101 1713.74 174.436 1715.47 174.641C1714.52 175.184 1713.54 175.681 1712.54 176.135C1711.77 175.335 1711.05 174.503 1710.37 173.643ZM1710.37 173.643C1709.3 172.276 1708.33 170.836 1707.47 169.335C1707.35 170.421 1707.27 171.519 1707.24 172.626C1708.27 173.013 1709.32 173.353 1710.37 173.643ZM1714.29 173.078C1717.09 173.005 1719.29 170.682 1719.22 167.889C1719.14 165.096 1716.82 162.891 1714.03 162.964C1711.23 163.037 1709.03 165.361 1709.1 168.154C1709.18 170.947 1711.5 173.151 1714.29 173.078Z" fill="#3B548C"/>
<path d="M1719.22 167.893C1719.29 170.686 1717.09 173.01 1714.29 173.083C1711.5 173.156 1709.18 170.951 1709.1 168.158C1709.03 165.365 1711.23 163.042 1714.03 162.969C1716.82 162.896 1719.14 165.1 1719.22 167.893Z" fill="#EBCD83"/>
<path fill-rule="evenodd" clip-rule="evenodd" d="M1719.78 171.748C1720.64 171.07 1721.47 170.348 1722.27 169.581C1721.82 168.58 1721.32 167.602 1720.78 166.648C1720.91 165.562 1720.98 164.464 1721.01 163.357C1719.98 162.97 1718.94 162.63 1717.88 162.34C1717.2 161.48 1716.48 160.648 1715.71 159.848C1714.71 160.301 1713.73 160.799 1712.78 161.342C1711.69 161.213 1710.6 161.136 1709.49 161.112C1709.1 162.14 1708.76 163.183 1708.47 164.24C1707.61 164.918 1706.78 165.64 1705.98 166.406C1706.43 167.407 1706.93 168.386 1707.47 169.339C1707.35 170.426 1707.27 171.524 1707.24 172.631C1708.27 173.018 1709.32 173.357 1710.37 173.647C1711.05 174.507 1711.77 175.339 1712.54 176.139C1713.54 175.686 1714.52 175.188 1715.47 174.645C1716.56 174.774 1717.66 174.852 1718.76 174.875C1719.15 173.848 1719.49 172.805 1719.78 171.748ZM1719.78 171.748C1720.24 170.08 1720.57 168.378 1720.78 166.648C1719.92 165.147 1718.96 163.707 1717.88 162.34C1716.21 161.882 1714.51 161.547 1712.78 161.342C1711.28 162.197 1709.84 163.162 1708.47 164.24C1708.01 165.907 1707.68 167.609 1707.47 169.339C1708.33 170.841 1709.29 172.28 1710.37 173.647C1712.04 174.105 1713.74 174.44 1715.47 174.645C1716.97 173.791 1718.41 172.825 1719.78 171.748Z" fill="#EBCD83"/>
<path fill-rule="evenodd" clip-rule="evenodd" d="M1725.84 165.583C1727.99 162.769 1729.66 159.673 1730.86 156.377C1727.35 156.518 1723.94 157.058 1720.71 158.004C1720.23 154.499 1719.22 151.13 1717.75 147.946C1715.37 150.526 1713.34 153.318 1711.71 156.277C1708.9 154.134 1705.8 152.465 1702.51 151.258C1702.65 154.766 1703.19 158.175 1704.14 161.414C1700.63 161.889 1697.26 162.897 1694.08 164.374C1696.66 166.754 1699.45 168.783 1702.41 170.405C1700.27 173.218 1698.6 176.314 1697.39 179.61C1700.9 179.469 1704.31 178.929 1707.55 177.984C1708.02 181.488 1709.03 184.857 1710.51 188.04C1712.89 185.461 1714.92 182.669 1716.54 179.71C1719.35 181.853 1722.45 183.522 1725.74 184.729C1725.6 181.221 1725.06 177.812 1724.12 174.573C1727.62 174.099 1730.99 173.09 1734.17 171.613C1731.59 169.233 1728.8 167.204 1725.84 165.583ZM1722.27 169.581C1722.67 169.203 1723.05 168.815 1723.43 168.415C1724.29 167.508 1725.1 166.562 1725.84 165.583C1724.28 164.724 1722.66 163.979 1721.01 163.357C1721.02 162.81 1721.02 162.262 1721 161.712C1720.97 160.461 1720.87 159.224 1720.71 158.004C1718.99 158.504 1717.32 159.119 1715.71 159.848C1715.34 159.454 1714.95 159.067 1714.55 158.688C1713.64 157.826 1712.69 157.023 1711.71 156.277C1710.86 157.844 1710.11 159.458 1709.49 161.112C1708.94 161.1 1708.39 161.101 1707.84 161.116C1706.59 161.148 1705.36 161.249 1704.14 161.414C1704.64 163.129 1705.25 164.797 1705.98 166.406C1705.59 166.784 1705.2 167.172 1704.82 167.572C1703.96 168.479 1703.16 169.425 1702.41 170.405C1703.98 171.264 1705.59 172.008 1707.24 172.631C1707.23 173.177 1707.23 173.725 1707.25 174.275C1707.28 175.527 1707.38 176.763 1707.55 177.984C1709.26 177.483 1710.93 176.869 1712.54 176.139C1712.92 176.534 1713.3 176.92 1713.7 177.299C1714.61 178.161 1715.56 178.964 1716.54 179.71C1717.4 178.143 1718.14 176.529 1718.76 174.875C1719.31 174.887 1719.86 174.886 1720.41 174.872C1721.66 174.839 1722.9 174.738 1724.12 174.573C1723.62 172.858 1723 171.19 1722.27 169.581Z" fill="#EBCD83"/>
<path fill-rule="evenodd" clip-rule="evenodd" d="M1720.66 107.877C1720.64 107.876 1720.63 107.874 1720.61 107.872C1720.62 107.882 1720.62 107.892 1720.63 107.902C1720.39 108.155 1720.14 108.41 1719.9 108.667C1713.01 115.924 1708.12 124.2 1705.31 132.609C1697.57 126.526 1687.48 122.328 1676.23 120.901C1676.23 120.879 1676.23 120.857 1676.23 120.834C1676.21 120.854 1676.19 120.873 1676.16 120.892C1676.19 120.895 1676.21 120.898 1676.23 120.901C1676.24 121.254 1676.25 121.608 1676.25 121.963C1676.52 131.964 1678.91 141.274 1682.87 149.21C1673.1 150.38 1663 154.542 1654.03 161.487C1654.02 161.472 1654 161.458 1653.99 161.443C1653.98 161.472 1653.98 161.501 1653.98 161.53C1654 161.516 1654.01 161.501 1654.03 161.487C1654.28 161.734 1654.54 161.98 1654.8 162.224C1662.05 169.111 1670.33 174.001 1678.74 176.814C1672.66 184.552 1668.46 194.636 1667.03 205.885C1667.02 205.885 1667.01 205.885 1667 205.885C1667.01 205.896 1667.02 205.908 1667.03 205.919C1667.03 205.908 1667.03 205.896 1667.03 205.885C1667.39 205.881 1667.74 205.874 1668.1 205.865C1678.1 205.603 1687.41 203.208 1695.34 199.251C1696.51 209.019 1700.67 219.114 1707.61 228.074C1707.62 228.074 1707.62 228.075 1707.63 228.076C1707.87 227.826 1708.12 227.574 1708.36 227.32C1715.24 220.063 1720.13 211.787 1722.95 203.377C1730.67 209.451 1740.74 213.646 1751.97 215.08C1751.98 215.066 1752 215.053 1752.02 215.04C1752.01 214.702 1752.01 214.364 1752 214.025C1751.74 204.023 1749.34 194.713 1745.38 186.777C1755.14 185.609 1765.22 181.457 1774.18 174.532C1774.18 174.51 1774.18 174.488 1774.19 174.466C1773.94 174.23 1773.7 173.996 1773.46 173.763C1766.2 166.876 1757.92 161.986 1749.51 159.173C1755.59 151.439 1759.79 141.36 1761.22 130.117C1761.21 130.112 1761.21 130.107 1761.21 130.102C1760.86 130.106 1760.51 130.113 1760.16 130.122C1750.16 130.384 1740.85 132.779 1732.91 136.736C1731.74 126.964 1727.58 116.865 1720.63 107.902C1720.64 107.894 1720.65 107.886 1720.66 107.877ZM1730.86 156.377C1733.08 150.332 1733.73 143.615 1732.91 136.736C1727 139.684 1721.85 143.5 1717.75 147.946C1715.04 142.106 1710.75 136.891 1705.31 132.609C1703.21 138.874 1702.27 145.213 1702.51 151.258C1696.46 149.045 1689.75 148.386 1682.87 149.21C1685.82 155.122 1689.63 160.271 1694.08 164.374C1688.24 167.083 1683.02 171.368 1678.74 176.814C1685.01 178.909 1691.34 179.852 1697.39 179.61C1695.18 185.655 1694.52 192.372 1695.34 199.251C1701.25 196.303 1706.4 192.487 1710.51 188.04C1713.22 193.881 1717.5 199.096 1722.95 203.377C1725.04 197.113 1725.99 190.774 1725.74 184.729C1731.79 186.942 1738.5 187.601 1745.38 186.777C1742.43 180.865 1738.62 175.717 1734.17 171.613C1740.01 168.904 1745.23 164.62 1749.51 159.173C1743.25 157.078 1736.91 156.135 1730.86 156.377Z" fill="#EBCD83"/>
<path d="M1720.55 169.327C1719.65 173.953 1718.21 175.067 1713.42 174.135C1708.62 173.202 1707.74 171.481 1708.61 167.004C1709.62 161.781 1711.26 161.326 1715.74 162.197C1720.63 163.149 1721.56 164.104 1720.55 169.327Z" fill="#79578D"/>
<path d="M1722.28 169.465C1721.71 172.434 1720.78 173.149 1717.71 172.55C1714.63 171.952 1714.06 170.848 1714.62 167.974C1715.27 164.623 1716.33 164.33 1719.2 164.889C1722.34 165.5 1722.94 166.113 1722.28 169.465Z" fill="#79578D"/>
<path d="M1718.12 172.526C1717.44 176.027 1716.35 176.87 1712.72 176.164C1709.09 175.458 1708.42 174.156 1709.08 170.768C1709.85 166.815 1711.09 166.47 1714.48 167.129C1718.19 167.85 1718.89 168.573 1718.12 172.526Z" fill="#79578D"/>
<path d="M1716.13 169.852C1715.4 173.625 1714.22 174.534 1710.31 173.773C1706.4 173.013 1705.68 171.609 1706.39 167.958C1707.22 163.699 1708.56 163.327 1712.21 164.037C1716.2 164.814 1716.96 165.593 1716.13 169.852Z" fill="#79578D"/>
<path d="M1716.61 168.307C1715.82 172.411 1714.54 173.4 1710.29 172.572C1706.04 171.745 1705.25 170.218 1706.02 166.246C1706.93 161.613 1708.38 161.208 1712.35 161.981C1716.69 162.826 1717.52 163.674 1716.61 168.307Z" fill="#79578D"/>
<path d="M1719.17 167.288C1718.32 171.649 1716.97 172.699 1712.45 171.82C1707.93 170.941 1707.09 169.319 1707.91 165.099C1708.87 160.175 1710.42 159.746 1714.64 160.567C1719.25 161.465 1720.13 162.365 1719.17 167.288Z" fill="#79578D"/>
<path d="M1718.04 164.353C1717.44 167.394 1716.5 168.126 1713.35 167.513C1710.2 166.9 1709.62 165.769 1710.19 162.826C1710.86 159.393 1711.93 159.093 1714.88 159.666C1718.09 160.292 1718.7 160.92 1718.04 164.353Z" fill="#79578D"/>
<path d="M1721.03 164.814C1720.96 168.525 1720 169.586 1716.16 169.519C1712.31 169.452 1711.39 168.238 1711.45 164.647C1711.52 160.457 1712.73 159.88 1716.32 159.942C1720.25 160.011 1721.1 160.624 1721.03 164.814Z" fill="#79578D"/>
<path d="M1720.14 171.04C1720.08 174.522 1719.18 175.517 1715.57 175.454C1711.96 175.391 1711.1 174.253 1711.16 170.883C1711.23 166.953 1712.36 166.411 1715.73 166.469C1719.41 166.534 1720.21 167.109 1720.14 171.04Z" fill="#79578D"/>
<path d="M4022.49 240.085C4022.49 259.736 4016.1 276.736 4003.31 291.084C3990.52 305.432 3972.27 316.505 3948.57 324.303C3925.17 332.101 3897.57 336 3865.75 336C3813.66 336 3774.05 326.642 3746.91 307.927C3720.09 289.212 3706.68 263.947 3706.68 232.131V230.26H3763.76V231.196C3763.76 250.223 3772.49 264.727 3789.96 274.708C3807.74 284.378 3833 289.212 3865.75 289.212C3895.7 289.212 3918.94 285.157 3935.47 277.047C3952 268.626 3960.27 256.617 3960.27 241.021V240.553C3960.27 228.7 3955.74 219.499 3946.7 212.948C3937.96 206.398 3926.89 201.719 3913.48 198.912C3900.38 196.105 3881.97 193.297 3858.27 190.49C3827.39 186.747 3802.12 182.536 3782.47 177.858C3763.13 172.867 3746.45 163.821 3732.41 150.721C3718.68 137.62 3711.82 118.905 3711.82 94.5754V94.1075C3711.82 64.7872 3725.55 42.0172 3753 25.7975C3780.44 9.26583 3817.56 1 3864.35 1C3913.32 1 3951.38 9.42178 3978.51 26.2653C4005.65 43.1089 4019.22 66.5028 4019.22 96.4469V98.7863H3961.67V97.8505C3961.67 81.6308 3953.09 69.1541 3935.94 60.4204C3918.78 51.6867 3895.39 47.3198 3865.75 47.3198C3836.43 47.3198 3813.66 51.5307 3797.44 59.9525C3781.54 68.0624 3773.58 79.4474 3773.58 94.1075V94.5754C3773.58 106.74 3778.11 116.254 3787.15 123.116C3796.2 129.666 3807.43 134.501 3820.84 137.62C3834.56 140.427 3853.28 143.235 3876.98 146.042C3907.86 149.785 3932.97 154.152 3952.31 159.142C3971.65 163.821 3988.18 172.555 4001.91 185.344C4015.63 197.82 4022.49 215.912 4022.49 239.617V240.085Z" fill="#292D36"/>
<path d="M3414.81 332.135H3353.98V4.62109H3414.81V332.135Z" fill="#292D36"/>
<path d="M3061.81 240.085C3061.81 259.736 3055.42 276.736 3042.63 291.084C3029.84 305.432 3011.59 316.505 2987.89 324.303C2964.49 332.101 2936.89 336 2905.07 336C2852.98 336 2813.37 326.642 2786.23 307.927C2759.41 289.212 2745.99 263.947 2745.99 232.131V230.26H2803.08V231.196C2803.08 250.223 2811.81 264.727 2829.28 274.708C2847.06 284.378 2872.32 289.212 2905.07 289.212C2935.02 289.212 2958.25 285.157 2974.79 277.047C2991.32 268.626 2999.58 256.617 2999.58 241.021V240.553C2999.58 228.7 2995.06 219.499 2986.02 212.948C2977.28 206.398 2966.21 201.719 2952.8 198.912C2939.7 196.105 2921.29 193.297 2897.59 190.49C2866.71 186.747 2841.44 182.536 2821.79 177.858C2802.45 172.867 2785.76 163.821 2771.73 150.721C2758 137.62 2751.14 118.905 2751.14 94.5754V94.1075C2751.14 64.7872 2764.87 42.0172 2792.31 25.7975C2819.76 9.26583 2856.88 1 2903.67 1C2952.64 1 2990.69 9.42178 3017.83 26.2653C3044.97 43.1089 3058.54 66.5028 3058.54 96.4469V98.7863H3000.99V97.8505C3000.99 81.6308 2992.41 69.1541 2975.25 60.4204C2958.1 51.6867 2934.7 47.3198 2905.07 47.3198C2875.75 47.3198 2852.98 51.5307 2836.76 59.9525C2820.85 68.0624 2812.9 79.4474 2812.9 94.1075V94.5754C2812.9 106.74 2817.42 116.254 2826.47 123.116C2835.51 129.666 2846.74 134.501 2860.16 137.62C2873.88 140.427 2892.6 143.235 2916.3 146.042C2947.18 149.785 2972.29 154.152 2991.63 159.142C3010.97 163.821 3027.5 172.555 3041.22 185.344C3054.95 197.82 3061.81 215.912 3061.81 239.617V240.085Z" fill="#292D36"/>
<path d="M2401.02 268.997H2228.38L2202.18 332.161H2139.01L2278.91 3.71094H2350.49L2490.39 332.161H2427.69L2401.02 268.997ZM2382.31 223.613L2314.93 63.5992L2247.56 223.613H2382.31Z" fill="#292D36"/>
<path d="M1247.27 4.62109V332.135H1182.24L990.876 80.4172L991.344 332.135H930.52V4.62109H996.49L1186.92 254.467L1185.98 4.62109H1247.27Z" fill="#292D36"/>
<path d="M622.288 332.135H561.464V4.62109H622.288V332.135Z" fill="#292D36"/>
<path d="M60.824 53.7482V147.791H252.186V195.047H60.824V332.135H0V4.62109H272.304V53.7482H60.824Z" fill="#292D36"/>
</svg>
