<svg width="4023" height="335" viewBox="0 0 4023 335" fill="none" xmlns="http://www.w3.org/2000/svg">
<path d="M4022.49 239.085C4022.49 258.736 4016.1 275.736 4003.31 290.084C3990.52 304.432 3972.27 315.505 3948.57 323.303C3925.17 331.101 3897.57 335 3865.75 335C3813.66 335 3774.05 325.642 3746.91 306.927C3720.09 288.212 3706.68 262.947 3706.68 231.131V229.26H3763.76V230.196C3763.76 249.223 3772.49 263.727 3789.96 273.708C3807.74 283.378 3833 288.212 3865.75 288.212C3895.7 288.212 3918.94 284.157 3935.47 276.047C3952 267.626 3960.27 255.617 3960.27 240.021V239.553C3960.27 227.7 3955.74 218.499 3946.7 211.948C3937.96 205.398 3926.89 200.719 3913.48 197.912C3900.38 195.105 3881.97 192.297 3858.27 189.49C3827.39 185.747 3802.12 181.536 3782.47 176.858C3763.13 171.867 3746.45 162.821 3732.41 149.721C3718.68 136.62 3711.82 117.905 3711.82 93.5754V93.1075C3711.82 63.7872 3725.55 41.0172 3753 24.7975C3780.44 8.26583 3817.56 0 3864.35 0C3913.32 0 3951.38 8.42178 3978.51 25.2653C4005.65 42.1089 4019.22 65.5028 4019.22 95.4469V97.7863H3961.67V96.8505C3961.67 80.6308 3953.09 68.1541 3935.94 59.4204C3918.78 50.6867 3895.39 46.3198 3865.75 46.3198C3836.43 46.3198 3813.66 50.5307 3797.44 58.9525C3781.54 67.0624 3773.58 78.4474 3773.58 93.1075V93.5754C3773.58 105.74 3778.11 115.254 3787.15 122.116C3796.2 128.666 3807.43 133.501 3820.84 136.62C3834.56 139.427 3853.28 142.235 3876.98 145.042C3907.86 148.785 3932.97 153.152 3952.31 158.142C3971.65 162.821 3988.18 171.555 4001.91 184.344C4015.63 196.82 4022.49 214.912 4022.49 238.617V239.085Z" fill="white"/>
<path d="M3414.81 331.135H3353.98V3.62109H3414.81V331.135Z" fill="white"/>
<path d="M3061.81 239.085C3061.81 258.736 3055.42 275.736 3042.63 290.084C3029.84 304.432 3011.59 315.505 2987.89 323.303C2964.49 331.101 2936.89 335 2905.07 335C2852.98 335 2813.37 325.642 2786.23 306.927C2759.41 288.212 2745.99 262.947 2745.99 231.131V229.26H2803.08V230.196C2803.08 249.223 2811.81 263.727 2829.28 273.708C2847.06 283.378 2872.32 288.212 2905.07 288.212C2935.02 288.212 2958.25 284.157 2974.79 276.047C2991.32 267.626 2999.58 255.617 2999.58 240.021V239.553C2999.58 227.7 2995.06 218.499 2986.02 211.948C2977.28 205.398 2966.21 200.719 2952.8 197.912C2939.7 195.105 2921.29 192.297 2897.59 189.49C2866.71 185.747 2841.44 181.536 2821.79 176.858C2802.45 171.867 2785.76 162.821 2771.73 149.721C2758 136.62 2751.14 117.905 2751.14 93.5754V93.1075C2751.14 63.7872 2764.87 41.0172 2792.31 24.7975C2819.76 8.26583 2856.88 0 2903.67 0C2952.64 0 2990.69 8.42178 3017.83 25.2653C3044.97 42.1089 3058.54 65.5028 3058.54 95.4469V97.7863H3000.99V96.8505C3000.99 80.6308 2992.41 68.1541 2975.25 59.4204C2958.1 50.6867 2934.7 46.3198 2905.07 46.3198C2875.75 46.3198 2852.98 50.5307 2836.76 58.9525C2820.85 67.0624 2812.9 78.4474 2812.9 93.1075V93.5754C2812.9 105.74 2817.42 115.254 2826.47 122.116C2835.51 128.666 2846.74 133.501 2860.16 136.62C2873.88 139.427 2892.6 142.235 2916.3 145.042C2947.18 148.785 2972.29 153.152 2991.63 158.142C3010.97 162.821 3027.5 171.555 3041.22 184.344C3054.95 196.82 3061.81 214.912 3061.81 238.617V239.085Z" fill="white"/>
<path d="M2401.02 267.997H2228.38L2202.18 331.161H2139.01L2278.91 2.71094H2350.49L2490.39 331.161H2427.69L2401.02 267.997ZM2382.31 222.613L2314.93 62.5992L2247.56 222.613H2382.31Z" fill="white"/>
<path d="M1247.27 3.62109V331.135H1182.24L990.876 79.4172L991.344 331.135H930.52V3.62109H996.49L1186.92 253.467L1185.98 3.62109H1247.27Z" fill="white"/>
<path d="M622.288 331.135H561.464V3.62109H622.288V331.135Z" fill="white"/>
<path d="M60.824 52.7482V146.791H252.186V194.047H60.824V331.135H0V3.62109H272.304V52.7482H60.824Z" fill="white"/>
</svg>
