<svg width="179" height="179" viewBox="0 0 179 179" fill="none" xmlns="http://www.w3.org/2000/svg">
<path fill-rule="evenodd" clip-rule="evenodd" d="M127.144 84.4695C124.693 86.7236 122.08 88.6244 119.399 90.1602C113.814 86.3795 107.772 84.3184 102.23 84.1781C106.293 80.4319 109.497 74.9445 111.256 68.4687C114.399 67.863 117.744 67.6041 121.203 67.7491C126.924 67.989 132.244 69.3045 136.787 71.4043C134.674 76.0152 131.426 80.5322 127.144 84.4695ZM110.287 42.9104C106.771 33.4457 99.8099 26.9 91.5459 26.5535C83.2171 26.2042 75.6807 32.2404 71.4017 41.4993C62.2231 37.2937 52.6731 37.5875 46.5848 43.186C40.4489 48.8282 39.3879 58.4253 42.9088 67.9978C33.4443 71.514 26.8989 78.4747 26.5527 86.7387C26.2038 95.0674 32.2402 102.604 41.4993 106.883C37.2927 116.063 37.5861 125.614 43.185 131.702C48.8277 137.839 58.4257 138.899 67.999 135.378C71.5155 144.842 78.4765 151.388 86.7404 151.735C95.0692 152.084 102.606 146.048 106.885 136.789C116.063 140.994 125.613 140.7 131.702 135.102C137.838 129.46 138.899 119.863 135.378 110.29C144.842 106.774 151.387 99.8131 151.734 91.5491C152.082 83.2204 146.046 75.6837 136.787 71.4043C140.994 62.2252 140.7 52.6743 135.101 46.5857C129.459 40.4494 119.861 39.3886 110.287 42.9104ZM109.819 111.257C112.801 112.067 115.992 112.57 119.319 112.71C125.132 112.953 130.623 112.056 135.378 110.29C133.65 105.592 130.819 100.901 126.942 96.6852C124.599 94.1371 122.051 91.9549 119.399 90.1602C113.576 93.496 107.43 95.1106 101.908 94.8865C99.227 92.0661 96.0509 90.0896 92.5651 89.2406C96.0765 88.5939 99.3668 86.8185 102.23 84.1781C98.3399 84.0796 94.6964 84.9279 91.6311 86.7926C93.6566 83.8523 94.7278 80.2704 94.8857 76.3784C98.903 72.5595 104.633 69.7446 111.256 68.4687C112.065 65.487 112.568 62.2958 112.708 58.9685C112.951 53.1564 112.054 47.6651 110.287 42.9104C105.59 44.6383 100.899 47.4693 96.6845 51.3451C94.1363 53.6883 91.9541 56.2367 90.1594 58.8881C88.6236 56.2071 86.7228 53.5947 84.4686 51.1433C80.5308 46.861 76.0132 43.6123 71.4017 41.4993C69.3022 46.0425 67.9869 51.3617 67.7472 57.0832C67.6023 60.5418 67.8614 63.8869 68.4672 67.0307C65.4855 66.2209 62.2942 65.7176 58.9668 65.5781C53.1547 65.3344 47.6634 66.2315 42.9088 67.9978C44.6366 72.6954 47.4679 77.3872 51.3443 81.6027C53.6874 84.1509 56.2358 86.333 58.8872 88.1277C56.2062 89.6636 53.5937 91.5643 51.1423 93.8186C46.8606 97.7558 43.6122 102.273 41.4993 106.883C46.0426 108.983 51.3618 110.299 57.0833 110.539C60.542 110.684 63.887 110.425 67.0308 109.819C66.2212 112.801 65.718 115.992 65.5786 119.319C65.3351 125.132 66.2324 130.623 67.999 135.378C72.6959 133.65 77.3868 130.819 81.6017 126.943C84.15 124.6 86.3322 122.051 88.1269 119.4C89.6628 122.081 91.5636 124.693 93.8178 127.145C97.7556 131.427 102.273 134.676 106.885 136.789C108.984 132.245 110.299 126.926 110.539 121.205C110.684 117.746 110.425 114.401 109.819 111.257ZM94.1088 102.231C97.8551 106.294 103.343 109.498 109.819 111.257C108.543 104.634 105.728 98.904 101.908 94.8865C98.0163 94.7286 94.4344 93.6573 91.4942 91.6317C91.4468 91.5538 91.3988 91.4763 91.3501 91.3992C91.9355 90.8194 92.2462 90.0608 92.2753 89.2913C92.3721 89.2753 92.4687 89.2584 92.5651 89.2406C92.4695 89.2173 92.3736 89.1949 92.2775 89.1733C92.2778 88.4143 92.0042 87.6531 91.45 87.0504C91.4499 87.0504 91.4499 87.0504 91.4499 87.0503C91.5111 86.965 91.5715 86.8791 91.6311 86.7926C91.5411 86.8473 91.4517 86.9029 91.3628 86.9593C90.7925 86.3862 90.0503 86.0779 89.2952 86.0409C89.2777 85.9344 89.2592 85.828 89.2396 85.7218C90.0885 82.2358 92.065 79.0596 94.8857 76.3784C95.1096 70.8565 93.4951 64.7107 90.1594 58.8881C86.3787 64.4736 84.3176 70.5158 84.1773 76.0571C80.4311 71.9939 74.9434 68.7894 68.4672 67.0307C69.7435 73.6539 72.5588 79.384 76.3781 83.4015C70.8561 83.1774 64.71 84.7919 58.8872 88.1277C64.4726 91.9084 70.5147 93.9695 76.056 94.1098C71.9932 97.8559 68.7892 103.343 67.0308 109.819C73.6536 108.543 79.3834 105.728 83.4008 101.909C83.1768 107.431 84.7913 113.577 88.1269 119.4C91.9077 113.814 93.9687 107.772 94.1088 102.231ZM89.0467 92.5659C89.6935 96.077 91.4687 99.367 94.1088 102.231C94.2072 98.3402 93.3589 94.6968 91.4942 91.6317C91.4193 91.5801 91.3449 91.5279 91.2708 91.4751C91.2978 91.4501 91.3242 91.4248 91.3501 91.3992C90.9341 90.7402 90.4701 90.1089 89.9574 89.5086C90.7388 89.4913 91.5121 89.418 92.2753 89.2913C92.2768 89.252 92.2775 89.2127 92.2775 89.1733C91.5241 89.004 90.7566 88.8873 89.9768 88.8259C90.5122 88.2662 91.003 87.6733 91.4499 87.0503C91.4213 87.0193 91.3923 86.9889 91.3628 86.9593C90.7167 87.3696 90.0972 87.8261 89.5077 88.3296C89.4906 87.5582 89.4189 86.7946 89.2952 86.0409C89.2522 86.0388 89.2091 86.0376 89.1661 86.0373C89.1896 85.9318 89.2141 85.8267 89.2396 85.7218C88.5928 82.2107 86.8175 78.9207 84.1773 76.0571C84.0789 79.9476 84.9272 83.5911 86.792 86.6564C83.8518 84.6307 80.27 83.5595 76.3781 83.4015C79.0594 86.2219 82.2354 88.1984 85.7212 89.0474C82.2098 89.6941 78.9196 91.4694 76.056 94.1098C79.9465 94.2083 83.59 93.36 86.6553 91.4953C84.6298 94.4355 83.5586 98.0174 83.4008 101.909C86.2213 99.2281 88.1978 96.0519 89.0467 92.5659ZM89.0008 92.3053C89.0154 92.3923 89.0307 92.4792 89.0467 92.5659C89.0676 92.4802 89.0877 92.3944 89.1072 92.3083C89.8775 92.317 90.6526 92.0436 91.2644 91.481C91.2665 91.479 91.2687 91.477 91.2708 91.4751C90.6354 91.0217 90.0311 90.5228 89.4613 89.9777C89.4735 89.8231 89.4835 89.6679 89.4913 89.5123C89.647 89.5133 89.8023 89.5121 89.9574 89.5086C89.8567 89.3907 89.7541 89.2739 89.6496 89.1584C89.7605 89.0489 89.8695 88.9381 89.9768 88.8259C89.8222 88.8137 89.6671 88.8037 89.5115 88.7959C89.5124 88.6402 89.5112 88.4847 89.5077 88.3296C89.3897 88.4303 89.2729 88.533 89.1574 88.6376C89.0479 88.5267 88.9371 88.4177 88.825 88.3104C88.8856 87.5401 89.0002 86.7818 89.1661 86.0373C88.4118 86.0312 87.6536 86.2957 87.0494 86.8374C86.9642 86.7762 86.8783 86.7159 86.792 86.6564C86.8463 86.7457 86.9016 86.8346 86.9576 86.923C86.3716 87.4913 86.0539 88.2366 86.0112 88.9966C85.9144 89.0127 85.8177 89.0296 85.7212 89.0474C85.8162 89.0705 85.9114 89.0928 86.0068 89.1142C85.9923 89.8824 86.2585 90.6571 86.8122 91.2715C86.7593 91.3457 86.707 91.4203 86.6553 91.4953C86.7329 91.4481 86.8102 91.4002 86.887 91.3517C87.4648 91.9502 88.2264 92.2704 89.0008 92.3053ZM88.7786 89.9584C88.7962 90.7497 88.8712 91.5327 89.0008 92.3053C89.0363 92.3069 89.0717 92.3079 89.1072 92.3083C89.2801 91.5453 89.3991 90.7678 89.4613 89.9777C89.3491 89.8704 89.2383 89.7614 89.1289 89.6505C89.162 89.6205 89.1951 89.5904 89.228 89.5601L89.2826 89.5096C89.3522 89.511 89.4218 89.5119 89.4913 89.5123C89.4935 89.4676 89.4955 89.4229 89.4974 89.3781L89.5004 89.3039C89.5505 89.2556 89.6002 89.2071 89.6496 89.1584C89.6196 89.1252 89.5894 89.0921 89.5591 89.0591L89.5088 89.0047C89.5101 88.9351 89.511 88.8655 89.5115 88.7959C89.4668 88.7937 89.4221 88.7916 89.3773 88.7897L89.3028 88.7868L89.2427 88.7246C89.2143 88.6955 89.1859 88.6665 89.1574 88.6376C89.1243 88.6675 89.0913 88.6976 89.0584 88.7278L89.0037 88.7783L88.9429 88.7773C88.8936 88.7765 88.8443 88.776 88.795 88.7757C88.8028 88.6201 88.8128 88.465 88.825 88.3104C88.2653 87.7751 87.6724 87.2842 87.0494 86.8374C87.0394 86.8464 87.0294 86.8555 87.0194 86.8646C86.9985 86.8839 86.9779 86.9033 86.9576 86.923C87.3681 87.5696 87.8249 88.1895 88.3287 88.7794C87.5475 88.7967 86.7743 88.87 86.0112 88.9966C86.009 89.0358 86.0075 89.075 86.0068 89.1142C86.7608 89.2837 87.529 89.4006 88.3095 89.4621C87.7645 90.0319 87.2655 90.6362 86.8122 91.2715C86.8194 91.2795 86.8265 91.2874 86.8338 91.2952C86.8513 91.3143 86.8691 91.3332 86.887 91.3517C87.5463 90.9356 88.178 90.4714 88.7786 89.9584ZM88.7748 89.4921C88.7739 89.6478 88.7751 89.8033 88.7786 89.9584C88.8965 89.8577 89.0133 89.755 89.1289 89.6505C89.0801 89.6011 89.0315 89.5513 88.9833 89.5012C89.0832 89.5049 89.183 89.5077 89.2826 89.5096C89.3559 89.4416 89.4285 89.373 89.5004 89.3039C89.5041 89.204 89.5069 89.1043 89.5088 89.0047C89.4407 88.9313 89.3721 88.8587 89.3028 88.7868C89.203 88.7831 89.1033 88.7802 89.0037 88.7783C88.9304 88.8464 88.8578 88.915 88.7859 88.9842L88.7889 88.9096L88.7903 88.8765L88.7919 88.84L88.795 88.7757C88.6393 88.7747 88.4838 88.7759 88.3287 88.7794C88.4295 88.8974 88.5321 89.0141 88.6366 89.1297C88.5258 89.2391 88.4168 89.35 88.3095 89.4621C88.4641 89.4743 88.6193 89.4843 88.7748 89.4921ZM88.7775 89.2834L88.7271 89.2289C88.7132 89.2137 88.6992 89.1985 88.6853 89.1833C88.6691 89.1655 88.6528 89.1476 88.6366 89.1297C88.686 89.0809 88.7358 89.0324 88.7859 88.9842C88.7822 89.084 88.7794 89.1838 88.7775 89.2834ZM88.7775 89.2834C88.7762 89.353 88.7753 89.4226 88.7748 89.4921C88.8195 89.4943 88.8643 89.4964 88.909 89.4982L88.9833 89.5012C88.9141 89.4293 88.8455 89.3568 88.7775 89.2834Z" fill="#9CB38B"/>
</svg>
