<svg width="177" height="177" viewBox="0 0 177 177" fill="none" xmlns="http://www.w3.org/2000/svg">
<path fill-rule="evenodd" clip-rule="evenodd" d="M126.503 83.8289C124.052 86.0826 121.44 87.9831 118.76 89.5188C113.174 85.738 107.131 83.6771 101.59 83.5373C105.652 79.7913 108.856 74.3043 110.615 67.829C113.759 67.2229 117.105 66.9637 120.565 67.1088C126.286 67.3487 131.604 68.6638 136.147 70.763C134.034 75.3741 130.785 79.8914 126.503 83.8289ZM109.646 42.2698C106.13 32.8052 99.169 26.2595 90.905 25.913C82.5763 25.5638 75.0398 31.5999 70.7609 40.8589C61.5823 36.6533 52.0323 36.9471 45.944 42.5455C39.8081 48.1878 38.7471 57.7849 42.268 67.3575C32.8041 70.8738 26.2592 77.8343 25.913 86.098C25.5641 94.4266 31.6004 101.963 40.8593 106.243C36.6532 115.422 36.9469 124.972 42.5455 131.06C48.188 137.197 57.7857 138.258 67.3587 134.736C70.8754 144.2 77.836 150.744 86.0994 151.091C94.4278 151.44 101.964 145.405 106.243 136.146C115.423 140.353 124.974 140.06 131.063 134.461C137.199 128.819 138.26 119.222 134.739 109.65C144.204 106.134 150.749 99.1729 151.096 90.9088C151.445 82.5794 145.407 75.0421 136.147 70.763C140.353 61.5841 140.059 52.0336 134.461 45.9451C128.818 39.8087 119.22 38.748 109.646 42.2698ZM109.179 110.616C112.161 111.426 115.353 111.93 118.682 112.069C124.494 112.313 129.985 111.416 134.739 109.65C133.012 104.952 130.18 100.26 126.304 96.0444C123.96 93.496 121.412 91.3136 118.76 89.5188C112.938 92.8546 106.792 94.4695 101.27 94.246C98.5901 91.4259 95.4156 89.4491 91.9314 88.5989C95.4403 87.951 98.7282 86.1761 101.59 83.5373C97.6987 83.439 94.0544 84.2881 90.9888 86.1542C93.0148 83.2143 94.0864 79.6327 94.2447 75.741C98.2616 71.9212 103.991 69.1056 110.615 67.829C111.424 64.8471 111.927 61.6556 112.067 58.3281C112.31 52.5159 111.413 47.0245 109.646 42.2698C104.95 43.9977 100.259 46.8287 96.0438 50.7045C93.4956 53.0477 91.3134 55.5963 89.5186 58.2477C87.9828 55.5667 86.082 52.9543 83.8278 50.5029C79.89 46.2205 75.3723 42.9719 70.7609 40.8589C68.6613 45.4021 67.346 50.7213 67.1064 56.4427C66.9615 59.9012 67.2205 63.246 67.8263 66.3897C64.8448 65.5801 61.654 65.0769 58.3271 64.9374C52.5145 64.6937 47.0228 65.5909 42.268 67.3575C43.9958 72.0551 46.827 76.7468 50.7034 80.9623C53.0464 83.5103 55.5947 85.6923 58.2458 87.4869C55.5655 89.0226 52.9537 90.923 50.5028 93.1767C46.2208 97.1142 42.9723 101.632 40.8593 106.243C45.4027 108.343 50.722 109.658 56.4436 109.898C59.9014 110.043 63.2457 109.784 66.3889 109.179C65.5798 112.16 65.0769 115.35 64.9376 118.676C64.6941 124.489 65.5916 129.981 67.3587 134.736C72.0558 133.008 76.7471 130.177 80.9622 126.301C83.5106 123.958 85.6929 121.409 87.4877 118.757C89.0237 121.439 90.9248 124.052 93.1794 126.504C97.1163 130.785 101.633 134.033 106.243 136.146C108.343 131.603 109.658 126.283 109.898 120.561C110.043 117.103 109.784 113.759 109.179 110.616ZM93.4694 101.589C97.2152 105.652 102.703 108.857 109.179 110.616C107.903 103.994 105.088 98.2639 101.27 94.246C97.3786 94.0885 93.797 93.0179 90.8568 90.9933C90.8093 90.9151 90.761 90.8372 90.7121 90.7597C91.2975 90.1795 91.608 89.4204 91.6366 88.6505C91.735 88.6342 91.8333 88.617 91.9314 88.5989C91.8341 88.5751 91.7365 88.5522 91.6387 88.5303C91.638 87.7727 91.3643 87.0133 90.8112 86.4118C90.8105 86.4111 90.8099 86.4104 90.8092 86.4096C90.8699 86.325 90.9298 86.2399 90.9888 86.1542C90.8997 86.2084 90.811 86.2636 90.7229 86.3195C90.1525 85.747 89.4106 85.439 88.6558 85.4022C88.6384 85.2965 88.6201 85.191 88.6007 85.0857C89.4488 81.5993 91.4246 78.4227 94.2447 75.741C94.4693 70.2184 92.8549 64.0714 89.5186 58.2477C85.7382 63.8329 83.6772 69.8746 83.5367 75.4155C79.7902 71.3525 74.3024 68.1482 67.8263 66.3897C69.1023 73.0123 71.9171 78.742 75.7359 82.7596C70.214 82.5361 64.0682 84.151 58.2458 87.4869C63.8303 91.2671 69.8712 93.3282 75.4117 93.4693C71.3498 97.216 68.1466 102.703 66.3889 109.179C73.0134 107.903 78.7445 105.087 82.7624 101.267C82.5382 106.789 84.1524 112.935 87.4877 118.757C91.2683 113.172 93.3292 107.13 93.4694 101.589ZM88.4079 91.9211C89.0539 95.4332 90.829 98.7242 93.4694 101.589C93.5677 97.6998 92.72 94.0577 90.8568 90.9933C90.7816 90.9415 90.7068 90.8891 90.6324 90.836C90.6595 90.811 90.6861 90.7855 90.7121 90.7597C90.296 90.1004 89.8319 89.4687 89.3191 88.8681C90.1003 88.8507 90.8735 88.7772 91.6366 88.6505C91.638 88.6105 91.6388 88.5704 91.6387 88.5303C90.8855 88.3609 90.1183 88.2441 89.3387 88.1826C89.8731 87.6237 90.3631 87.0316 90.8092 86.4096C90.7809 86.3789 90.7521 86.3489 90.7229 86.3195C90.0768 86.7298 89.4575 87.1864 88.868 87.6899C88.8509 86.9189 88.7793 86.1557 88.6558 85.4022C88.6131 85.4002 88.5705 85.399 88.5278 85.3986C88.5511 85.294 88.5754 85.1897 88.6007 85.0857C87.9545 81.5725 86.1785 78.2805 83.5367 75.4155C83.4381 79.3049 84.2858 82.9475 86.1492 86.0123C83.209 83.9876 79.6274 82.9171 75.7359 82.7596C78.4155 85.5788 81.5895 87.555 85.0731 88.4051C81.563 89.0532 78.2741 90.829 75.4117 93.4693C79.3051 93.5684 82.9513 92.7194 86.0184 90.8525C83.9921 93.7928 82.9205 97.375 82.7624 101.267C85.5833 98.5852 87.5597 95.4081 88.4079 91.9211ZM88.3632 91.6667C88.3774 91.7516 88.3923 91.8365 88.4079 91.9211C88.4283 91.8375 88.448 91.7536 88.467 91.6696C89.2378 91.6787 90.0134 91.4053 90.6256 90.8424C90.6279 90.8403 90.6301 90.8381 90.6324 90.836C89.9965 90.3825 89.3917 89.8832 88.8215 89.3379C88.8337 89.183 88.8437 89.0277 88.8515 88.8719C89.0077 88.8728 89.1635 88.8716 89.3191 88.8681C89.218 88.7497 89.115 88.6325 89.0101 88.5166C89.1215 88.4066 89.231 88.2953 89.3387 88.1826C89.1835 88.1703 89.0279 88.1603 88.8717 88.1524C88.8727 87.998 88.8714 87.8438 88.868 87.6899C88.7505 87.7904 88.6341 87.8927 88.519 87.9968C88.4097 87.8861 88.299 87.7772 88.1871 87.6701C88.2476 86.9004 88.3621 86.1426 88.5278 85.3986C87.774 85.3925 87.0164 85.6565 86.4123 86.1972C86.3252 86.1347 86.2375 86.0731 86.1492 86.0123C86.2048 86.1036 86.2612 86.1944 86.3185 86.2846C85.734 86.8516 85.4165 87.5946 85.3727 88.3527C85.2726 88.3692 85.1728 88.3867 85.0731 88.4051C85.1711 88.4291 85.2694 88.4521 85.368 88.4743C85.3532 89.2426 85.6192 90.0176 86.1728 90.6322C86.1207 90.7052 86.0692 90.7787 86.0184 90.8525C86.0947 90.806 86.1707 90.7589 86.2464 90.7112C86.8246 91.3111 87.5876 91.632 88.3632 91.6667ZM88.1406 89.3156C88.1581 90.1082 88.2332 90.8927 88.3632 91.6667C88.3978 91.6682 88.4324 91.6692 88.467 91.6696C88.6401 90.9062 88.7592 90.1284 88.8215 89.3379C88.709 89.2303 88.5979 89.121 88.4882 89.0099C88.5011 88.9982 88.514 88.9866 88.5268 88.9749C88.547 88.9565 88.5671 88.9381 88.5872 88.9196L88.6418 88.8692C88.7117 88.8705 88.7816 88.8714 88.8515 88.8719L88.8543 88.8141L88.8577 88.7374L88.8606 88.6623C88.9108 88.614 88.9607 88.5654 89.0101 88.5166C88.9801 88.4834 88.9499 88.4503 88.9196 88.4173L88.8691 88.3626C88.8704 88.2925 88.8713 88.2224 88.8717 88.1524L88.8237 88.1501L88.768 88.1476L88.7363 88.1462L88.6617 88.1433L88.6153 88.0952C88.5833 88.0623 88.5512 88.0295 88.519 87.9968L88.4783 88.0337L88.42 88.0871L88.3682 88.1349C88.2978 88.1335 88.2275 88.1326 88.1573 88.1322C88.165 87.9777 88.175 87.8236 88.1871 87.6701C87.6277 87.1348 87.035 86.644 86.4123 86.1972C86.4017 86.2067 86.3911 86.2163 86.3806 86.226C86.3596 86.2453 86.3389 86.2649 86.3185 86.2846C86.7279 86.9294 87.1834 87.5475 87.6856 88.1359C86.906 88.1533 86.1343 88.2264 85.3727 88.3527C85.3703 88.3932 85.3688 88.4337 85.368 88.4743C86.122 88.6437 86.8902 88.7605 87.6707 88.8218C87.1254 89.3919 86.6263 89.9965 86.1728 90.6322C86.1802 90.6404 86.1875 90.6485 86.195 90.6566C86.2119 90.675 86.2291 90.6932 86.2464 90.7112C86.9067 90.2944 87.5392 89.8294 88.1406 89.3156ZM88.1369 88.8518C88.1359 89.0067 88.1372 89.1613 88.1406 89.3156C88.2576 89.2155 88.3735 89.1136 88.4882 89.0099C88.4395 88.9605 88.391 88.9108 88.3428 88.8608C88.4426 88.8645 88.5423 88.8673 88.6418 88.8692C88.7155 88.8008 88.7884 88.7319 88.8606 88.6623C88.8644 88.5623 88.8672 88.4624 88.8691 88.3626C88.8005 88.2888 88.7314 88.2156 88.6617 88.1433C88.5638 88.1396 88.4659 88.1368 88.3682 88.1349C88.2941 88.2037 88.2207 88.273 88.148 88.3429L88.151 88.2694C88.1529 88.2236 88.155 88.1779 88.1573 88.1322C87.9997 88.1311 87.8425 88.1324 87.6856 88.1359C87.7875 88.2552 87.8913 88.3733 87.997 88.4902C87.8864 88.5994 87.7777 88.7099 87.6707 88.8218C87.8256 88.834 87.981 88.844 88.1369 88.8518ZM88.1395 88.6457L88.0865 88.5883C88.0734 88.5741 88.0604 88.5599 88.0474 88.5456C88.0306 88.5272 88.0138 88.5087 87.997 88.4902C88.0109 88.4764 88.0249 88.4627 88.0389 88.449C88.0751 88.4135 88.1115 88.3781 88.148 88.3429C88.1443 88.444 88.1414 88.5449 88.1395 88.6457ZM88.1395 88.6457C88.1382 88.7144 88.1373 88.7831 88.1369 88.8518C88.1806 88.8539 88.2244 88.856 88.2682 88.8578L88.3428 88.8608C88.2745 88.7898 88.2067 88.7181 88.1395 88.6457Z" fill="#FF6F00"/>
</svg>
